# xmcd
#
# Track frame offsets: 
#        150
#        24615
#        47898
#        65337
#        88584
#        108059
#        130107
#        152201
#        178974
#        203277
#        232307
#        250616
#
# Disc length: 3658 seconds
#
# Revision: 0
# Processed by: cddbd v1.5.2PL0 Copyright (c) Steve Scherf et al.
# Submitted via: ExactAudioCopyFreeDBPlugin 1.0
#
DISCID=9b0e480c
DTITLE=齐秦 - 齐秦狼冬
DYEAR=1900
DGENRE=
TTITLE0=狼
TTITLE1=原来的我
TTITLE2=大约在冬季
TTITLE3=冬雨
TTITLE4=九个太阳
TTITLE5=残酷的温柔
TTITLE6=黯淡的月
TTITLE7=垭口
TTITLE8=不必勉强
TTITLE9=自己的心情自己感受
TTITLE10=荒
TTITLE11=外面的世界
EXTD=
EXTT0=
EXTT1=
EXTT2=
EXTT3=
EXTT4=
EXTT5=
EXTT6=
EXTT7=
EXTT8=
EXTT9=
EXTT10=
EXTT11=
PLAYORDER=
